#Comment line ignore any data following # character 
#Hierarchical Translation and Rotation (.htr) file 
[Header]	
#Header keywords are followed by a single value 
FileType HTR		#Single word string
DataType HTRS		#Translation followed by rotation and scale data
FileVersion 1		#integer
NumSegments 84		#integer
NumFrames 2		#integer
DataFrameRate 30		#integer, data frame rate in this file
EulerRotationOrder ZYX
CalibrationUnits mm
RotationUnits Degrees
GlobalAxisofGravity Y
BoneLengthAxis Y
ScaleFactor 1.00
[SegmentNames&Hierarchy]
#CHILD	PARENT
MASTER GLOBAL
root MASTER
chest root
L_mid_tent01 root
R_mid_tent01 root
spine01 root
Bip01_Neck chest
L_humerus chest
R_humerus chest
weapon_bone chest
Bip01_Head Bip01_Neck
eye_left_bone Bip01_Head
eye_right_bone Bip01_Head
L_forearm L_humerus
L_front_hand L_forearm
L_weapon_bone L_forearm
L_front_hand01_01 L_front_hand
L_front_hand02_01 L_front_hand
L_front_hand03_01 L_front_hand
L_front_hand01_02 L_front_hand01_01
L_front_hand02_02 L_front_hand02_01
L_front_hand03_02 L_front_hand03_01
R_forearm R_humerus
R_front_hand R_forearm
R_weapon_bone R_forearm
R_front_hand01_01 R_front_hand
R_front_hand02_01 R_front_hand
R_front_hand03_01 R_front_hand
R_front_hand01_02 R_front_hand01_01
R_front_hand02_02 R_front_hand02_01
R_front_hand03_02 R_front_hand03_01
null_rope01_connect L_mid_tent01
Rope1_Seg01 null_rope01_connect
Rope1_Seg02 Rope1_Seg01
Rope1_Seg03 Rope1_Seg02
Rope1_Seg04 Rope1_Seg03
Rope1_Seg05 Rope1_Seg04
Rope1_Seg06 Rope1_Seg05
Rope1_Seg07 Rope1_Seg06
Rope1_Seg09 Rope1_Seg07
L_mid_hand01 Rope1_Seg09
L_mid_hand02 Rope1_Seg09
L_mid_hand03 Rope1_Seg09
null_rope02_connect R_mid_tent01
Rope2_Seg01 null_rope02_connect
Rope2_Seg02 Rope2_Seg01
Rope2_Seg03 Rope2_Seg02
Rope2_Seg04 Rope2_Seg03
Rope2_Seg05 Rope2_Seg04
Rope2_Seg06 Rope2_Seg05
Rope2_Seg07 Rope2_Seg06
Rope2_Seg09 Rope2_Seg07
R_mid_hand01 Rope2_Seg09
R_mid_hand02 Rope2_Seg09
R_mid_hand03 Rope2_Seg09
spine02 spine01
spine03 spine02
pelvis spine03
null_rope03_connect pelvis
null_rope04_connect pelvis
Rope3_Seg01 null_rope03_connect
Rope3_Seg02 Rope3_Seg01
Rope3_Seg03 Rope3_Seg02
Rope3_Seg04 Rope3_Seg03
Rope3_Seg05 Rope3_Seg04
Rope3_Seg06 Rope3_Seg05
Rope3_Seg07 Rope3_Seg06
Rope3_Seg08 Rope3_Seg07
Rope3_Seg09 Rope3_Seg08
R_rear_hand01 Rope3_Seg09
R_rear_hand02 Rope3_Seg09
R_rear_hand03 Rope3_Seg09
Rope4_Seg01 null_rope04_connect
Rope4_Seg02 Rope4_Seg01
Rope4_Seg03 Rope4_Seg02
Rope4_Seg04 Rope4_Seg03
Rope4_Seg05 Rope4_Seg04
Rope4_Seg06 Rope4_Seg05
Rope4_Seg07 Rope4_Seg06
Rope4_Seg08 Rope4_Seg07
Rope4_Seg09 Rope4_Seg08
L_rear_hand01 Rope4_Seg09
L_rear_hand02 Rope4_Seg09
L_rear_hand03 Rope4_Seg09
[BasePosition]
#SegmentName Tx, Ty, Tz, Rx, Ry, Rz, BoneLength
MASTER 0.000000 0.000000 0.000000 -90.000000 0.000000 0.000000 10.000000 
root 0.000000 0.000000 0.000000 0.000000 0.000000 0.000000 10.000000 
chest 0.000000 0.000000 0.000000 0.000000 0.000000 0.000000 10.000000 
L_mid_tent01 0.000000 0.000000 0.000000 0.000000 0.000000 0.000000 10.000000 
R_mid_tent01 0.000000 0.000000 0.000000 0.000000 0.000000 0.000000 10.000000 
spine01 0.000000 0.000000 0.000000 0.000000 0.000000 0.000000 10.000000 
Bip01_Neck 0.000000 0.000000 0.000000 0.000000 0.000000 0.000000 10.000000 
L_humerus 0.000000 0.000000 0.000000 0.000000 0.000000 0.000000 10.000000 
R_humerus 0.000000 0.000000 0.000000 0.000000 0.000000 0.000000 10.000000 
weapon_bone 0.000000 0.000000 0.000000 0.000000 0.000000 0.000000 10.000000 
Bip01_Head 0.000000 0.000000 0.000000 0.000000 0.000000 0.000000 10.000000 
eye_left_bone 0.000000 0.000000 0.000000 0.000000 0.000000 0.000000 10.000000 
eye_right_bone 0.000000 0.000000 0.000000 0.000000 0.000000 0.000000 10.000000 
L_forearm 0.000000 0.000000 0.000000 0.000000 0.000000 0.000000 10.000000 
L_front_hand 0.000000 0.000000 0.000000 0.000000 0.000000 0.000000 10.000000 
L_weapon_bone 0.000000 0.000000 0.000000 0.000000 0.000000 0.000000 10.000000 
L_front_hand01_01 0.000000 0.000000 0.000000 0.000000 0.000000 0.000000 10.000000 
L_front_hand02_01 0.000000 0.000000 0.000000 0.000000 0.000000 0.000000 10.000000 
L_front_hand03_01 0.000000 0.000000 0.000000 0.000000 0.000000 0.000000 10.000000 
L_front_hand01_02 0.000000 0.000000 0.000000 0.000000 0.000000 0.000000 10.000000 
L_front_hand02_02 0.000000 0.000000 0.000000 0.000000 0.000000 0.000000 10.000000 
L_front_hand03_02 0.000000 0.000000 0.000000 0.000000 0.000000 0.000000 10.000000 
R_forearm 0.000000 0.000000 0.000000 0.000000 0.000000 0.000000 10.000000 
R_front_hand 0.000000 0.000000 0.000000 0.000000 0.000000 0.000000 10.000000 
R_weapon_bone 0.000000 0.000000 0.000000 0.000000 0.000000 0.000000 10.000000 
R_front_hand01_01 0.000000 0.000000 0.000000 0.000000 0.000000 0.000000 10.000000 
R_front_hand02_01 0.000000 0.000000 0.000000 0.000000 0.000000 0.000000 10.000000 
R_front_hand03_01 0.000000 0.000000 0.000000 0.000000 0.000000 0.000000 10.000000 
R_front_hand01_02 0.000000 0.000000 0.000000 0.000000 0.000000 0.000000 10.000000 
R_front_hand02_02 0.000000 0.000000 0.000000 0.000000 0.000000 0.000000 10.000000 
R_front_hand03_02 0.000000 0.000000 0.000000 0.000000 0.000000 0.000000 10.000000 
null_rope01_connect 0.000000 0.000000 0.000000 0.000000 0.000000 0.000000 10.000000 
Rope1_Seg01 0.000000 0.000000 0.000000 0.000000 0.000000 0.000000 10.000000 
Rope1_Seg02 0.000000 0.000000 0.000000 0.000000 0.000000 0.000000 10.000000 
Rope1_Seg03 0.000000 0.000000 0.000000 0.000000 0.000000 0.000000 10.000000 
Rope1_Seg04 0.000000 0.000000 0.000000 0.000000 0.000000 0.000000 10.000000 
Rope1_Seg05 0.000000 0.000000 0.000000 0.000000 0.000000 0.000000 10.000000 
Rope1_Seg06 0.000000 0.000000 0.000000 0.000000 0.000000 0.000000 10.000000 
Rope1_Seg07 0.000000 0.000000 0.000000 0.000000 0.000000 0.000000 10.000000 
Rope1_Seg09 0.000000 0.000000 0.000000 0.000000 0.000000 0.000000 10.000000 
L_mid_hand01 0.000000 0.000000 0.000000 0.000000 0.000000 0.000000 10.000000 
L_mid_hand02 0.000000 0.000000 0.000000 0.000000 0.000000 0.000000 10.000000 
L_mid_hand03 0.000000 0.000000 0.000000 0.000000 0.000000 0.000000 10.000000 
null_rope02_connect 0.000000 0.000000 0.000000 0.000000 0.000000 0.000000 10.000000 
Rope2_Seg01 0.000000 0.000000 0.000000 0.000000 0.000000 0.000000 10.000000 
Rope2_Seg02 0.000000 0.000000 0.000000 0.000000 0.000000 0.000000 10.000000 
Rope2_Seg03 0.000000 0.000000 0.000000 0.000000 0.000000 0.000000 10.000000 
Rope2_Seg04 0.000000 0.000000 0.000000 0.000000 0.000000 0.000000 10.000000 
Rope2_Seg05 0.000000 0.000000 0.000000 0.000000 0.000000 0.000000 10.000000 
Rope2_Seg06 0.000000 0.000000 0.000000 0.000000 0.000000 0.000000 10.000000 
Rope2_Seg07 0.000000 0.000000 0.000000 0.000000 0.000000 0.000000 10.000000 
Rope2_Seg09 0.000000 0.000000 0.000000 0.000000 0.000000 0.000000 10.000000 
R_mid_hand01 0.000000 0.000000 0.000000 0.000000 0.000000 0.000000 10.000000 
R_mid_hand02 0.000000 0.000000 0.000000 0.000000 0.000000 0.000000 10.000000 
R_mid_hand03 0.000000 0.000000 0.000000 0.000000 0.000000 0.000000 10.000000 
spine02 0.000000 0.000000 0.000000 0.000000 0.000000 0.000000 10.000000 
spine03 0.000000 0.000000 0.000000 0.000000 0.000000 0.000000 10.000000 
pelvis 0.000000 0.000000 0.000000 0.000000 0.000000 0.000000 10.000000 
null_rope03_connect 0.000000 0.000000 0.000000 0.000000 0.000000 0.000000 10.000000 
null_rope04_connect 0.000000 0.000000 0.000000 0.000000 0.000000 0.000000 10.000000 
Rope3_Seg01 0.000000 0.000000 0.000000 0.000000 0.000000 0.000000 10.000000 
Rope3_Seg02 0.000000 0.000000 0.000000 0.000000 0.000000 0.000000 10.000000 
Rope3_Seg03 0.000000 0.000000 0.000000 0.000000 0.000000 0.000000 10.000000 
Rope3_Seg04 0.000000 0.000000 0.000000 0.000000 0.000000 0.000000 10.000000 
Rope3_Seg05 0.000000 0.000000 0.000000 0.000000 0.000000 0.000000 10.000000 
Rope3_Seg06 0.000000 0.000000 0.000000 0.000000 0.000000 0.000000 10.000000 
Rope3_Seg07 0.000000 0.000000 0.000000 0.000000 0.000000 0.000000 10.000000 
Rope3_Seg08 0.000000 0.000000 0.000000 0.000000 0.000000 0.000000 10.000000 
Rope3_Seg09 0.000000 0.000000 0.000000 0.000000 0.000000 0.000000 10.000000 
R_rear_hand01 0.000000 0.000000 0.000000 0.000000 0.000000 0.000000 10.000000 
R_rear_hand02 0.000000 0.000000 0.000000 0.000000 0.000000 0.000000 10.000000 
R_rear_hand03 0.000000 0.000000 0.000000 0.000000 0.000000 0.000000 10.000000 
Rope4_Seg01 0.000000 0.000000 0.000000 0.000000 0.000000 0.000000 10.000000 
Rope4_Seg02 0.000000 0.000000 0.000000 0.000000 0.000000 0.000000 10.000000 
Rope4_Seg03 0.000000 0.000000 0.000000 0.000000 0.000000 0.000000 10.000000 
Rope4_Seg04 0.000000 0.000000 0.000000 0.000000 0.000000 0.000000 10.000000 
Rope4_Seg05 0.000000 0.000000 0.000000 0.000000 0.000000 0.000000 10.000000 
Rope4_Seg06 0.000000 0.000000 0.000000 0.000000 0.000000 0.000000 10.000000 
Rope4_Seg07 0.000000 0.000000 0.000000 0.000000 0.000000 0.000000 10.000000 
Rope4_Seg08 0.000000 0.000000 0.000000 0.000000 0.000000 0.000000 10.000000 
Rope4_Seg09 0.000000 0.000000 0.000000 0.000000 0.000000 0.000000 10.000000 
L_rear_hand01 0.000000 0.000000 0.000000 0.000000 0.000000 0.000000 10.000000 
L_rear_hand02 0.000000 0.000000 0.000000 0.000000 0.000000 0.000000 10.000000 
L_rear_hand03 0.000000 0.000000 0.000000 0.000000 0.000000 0.000000 10.000000 
#Beginning of Data. Separated by tabs
#Fr	Tx	Ty	Tz	Rx	Ry	Rz	SF
[MASTER]
11 -178.687225 984.019287 758.161133 0.001660 0.001660 0.001660 1255.002441
12 -176.405502 1105.816895 911.984192 0.001660 0.001660 0.001660 1444.183105
[root]
11 75.778183 35.649338 961.717957 -89.511803 11.567769 -95.228622 965.357239
12 61.163109 41.077362 869.310791 -91.196770 10.225887 -94.232521 872.427368
[chest]
11 -84.512650 -34.090519 0.000000 6.560447 9.529250 152.918884 91.129311
12 -84.512650 -34.090519 0.000000 6.988081 10.317099 151.404556 91.129311
[L_mid_tent01]
11 27.299135 22.179070 -249.918701 -0.242067 20.114885 78.878372 252.381683
12 27.299137 22.179066 -249.918701 -0.164461 19.995560 79.474480 252.381683
[R_mid_tent01]
11 23.228794 24.509907 226.238495 168.972626 -21.987171 67.978378 228.744751
12 23.228794 24.509907 226.238495 166.562485 -22.986629 67.762642 228.744751
[spine01]
11 -0.361383 -0.195265 0.000000 -0.000001 -0.000007 22.052340 0.410763
12 -0.361383 -0.195265 0.000000 -0.000001 -0.000007 22.052340 0.410763
[Bip01_Neck]
11 165.484543 71.581718 0.000119 176.643677 -1.657967 43.431911 180.302734
12 165.484543 71.581718 0.000119 176.643677 -1.657967 43.431911 180.302734
[L_humerus]
11 -13.983130 -135.272980 -120.471481 60.550220 83.337791 150.961639 181.680161
12 -13.983130 -135.272980 -120.471481 94.289711 83.349220 -175.130417 181.680161
[R_humerus]
11 -13.983309 -135.273102 125.287651 -172.439240 -66.725060 -92.491844 184.909012
12 -13.983309 -135.273102 125.287651 -172.760208 -61.976196 -92.104897 184.909012
[weapon_bone]
11 235.964890 -300.705902 0.000000 0.000000 -89.951546 -128.212341 382.234833
12 235.964890 -300.705902 0.000000 0.000000 -89.951546 -128.212341 382.234833
[Bip01_Head]
11 213.448944 185.702133 11.948012 4.962490 2.797846 -43.898750 283.175720
12 213.362717 185.941772 8.855931 4.962490 2.797846 -43.898743 283.154388
[eye_left_bone]
11 -24.626970 125.451866 -64.772606 0.000000 -90.000000 -99.840431 143.318359
12 -24.626970 125.451866 -64.772606 0.000000 -90.000000 -99.840431 143.318359
[eye_right_bone]
11 -24.626970 125.451866 64.327362 0.000000 -89.965736 80.156380 143.117676
12 -24.626970 125.451866 64.327362 0.000000 -89.965736 80.156380 143.117676
[L_forearm]
11 322.776093 0.000000 -0.000119 0.000404 -0.002312 -109.837524 322.776093
12 322.776093 0.000000 -0.000119 0.000404 -0.002312 -109.819389 322.776093
[L_front_hand]
11 241.149185 -0.042021 -3.300071 -178.667953 -1.835447 -27.422350 241.171753
12 241.149185 -0.042021 -3.300071 160.814499 -1.835190 -27.423119 241.171753
[L_weapon_bone]
11 156.183838 0.000000 0.000000 0.000014 0.000007 0.000001 156.183838
12 156.183838 0.000000 0.000000 0.000014 0.000007 0.000001 156.183838
[L_front_hand01_01]
11 86.095154 20.947098 -0.655860 -0.273295 -0.533469 64.985298 88.609184
12 86.095154 20.947098 -0.655860 -0.274251 -0.532978 65.190620 88.609184
[L_front_hand02_01]
11 86.935165 -11.437475 24.513514 140.772385 -54.262844 -45.183468 91.046425
12 86.935165 -11.437475 24.513514 140.993607 -54.388721 -45.452248 91.046425
[L_front_hand03_01]
11 86.637497 -14.123976 -20.424902 -141.183044 52.494118 -47.265888 90.126129
12 86.637497 -14.123976 -20.424902 -141.389969 52.619431 -47.524094 90.126129
[L_front_hand01_02]
11 71.020905 -0.000179 0.000030 0.000316 -0.002326 -105.475121 71.020905
12 71.020905 -0.000179 0.000030 0.000315 -0.002326 -105.400543 71.020905
[L_front_hand02_02]
11 71.020927 -0.000119 0.000060 0.000316 -0.002326 -105.475121 71.020927
12 71.020927 -0.000119 0.000060 0.000315 -0.002326 -105.400543 71.020927
[L_front_hand03_02]
11 71.020905 -0.000060 0.000060 0.000316 -0.002326 -105.475121 71.020905
12 71.020905 -0.000060 0.000060 0.000315 -0.002326 -105.400543 71.020905
[R_forearm]
11 322.776428 -0.000060 0.000030 0.201753 0.066232 -108.672707 322.776428
12 322.776428 -0.000060 0.000030 0.201746 0.066254 -108.684883 322.776428
[R_front_hand]
11 238.847015 -0.006795 2.210259 -2.635298 -10.645461 -26.312506 238.857239
12 238.847015 -0.006795 2.210259 27.735710 -10.645714 -26.314903 238.857239
[R_weapon_bone]
11 155.664093 0.002503 -0.000030 0.003487 0.001180 -90.988930 155.664078
12 155.664093 0.002503 -0.000030 0.003487 0.001180 -90.988930 155.664078
[R_front_hand01_01]
11 87.624611 14.231146 22.918642 -138.890259 -53.085796 42.950848 91.683487
12 87.624611 14.231146 22.918642 -138.456909 -52.798618 42.405617 91.683487
[R_front_hand02_01]
11 89.356956 14.367283 -19.491137 139.720169 51.522045 45.641415 92.579636
12 89.356956 14.367283 -19.491137 139.300415 51.240429 45.105949 92.579636
[R_front_hand03_01]
11 87.286232 -22.307278 -0.143439 0.065790 -0.451534 -63.409447 90.091743
12 87.286232 -22.307278 -0.143439 0.064051 -0.451784 -62.968155 90.091743
[R_front_hand01_02]
11 71.020905 0.000060 0.000119 0.002330 -0.000286 104.002312 71.020905
12 71.020905 0.000060 0.000119 0.002330 -0.000284 103.881401 71.020905
[R_front_hand02_02]
11 71.020844 -0.000030 -0.000119 0.002330 -0.000286 104.002312 71.020836
12 71.020844 -0.000030 -0.000119 0.002330 -0.000284 103.881401 71.020836
[R_front_hand03_02]
11 71.020905 0.000000 0.000030 0.002330 -0.000286 104.002312 71.020905
12 71.020905 0.000000 0.000030 0.002330 -0.000284 103.881401 71.020905
[null_rope01_connect]
11 328.732483 0.000000 -0.000238 -166.522766 -69.785637 165.110107 328.732483
12 328.732483 0.000000 -0.000238 -169.899139 -68.481651 169.419754 328.732483
[Rope1_Seg01]
11 0.000000 0.000000 0.000000 -17.260242 -0.255539 152.706024 0.000000
12 0.000000 0.000000 0.000000 -17.865282 -5.521295 163.468292 0.000000
[Rope1_Seg02]
11 139.999863 -0.000179 0.000000 -0.446433 6.320563 -9.981650 139.999863
12 139.999863 -0.000179 0.000000 -1.236684 8.790329 -13.003256 139.999863
[Rope1_Seg03]
11 139.999924 0.000060 -0.000060 0.120854 4.976700 -8.550298 139.999924
12 139.999924 0.000060 -0.000060 -0.414591 7.117159 -11.380369 139.999924
[Rope1_Seg04]
11 139.999924 -0.000060 -0.000119 0.810503 0.639000 -4.045342 139.999924
12 139.999924 -0.000060 -0.000119 0.710114 2.326458 -6.586611 139.999924
[Rope1_Seg05]
11 139.999832 0.000119 -0.000060 -0.275221 7.767530 -9.844079 139.999832
12 139.999832 0.000119 -0.000060 -0.766265 8.392560 -9.293427 139.999832
[Rope1_Seg06]
11 139.999954 0.000119 -0.000060 -3.433711 16.769993 -19.075644 139.999954
12 139.999954 0.000119 -0.000060 -6.343210 17.925030 -16.632607 139.999954
[Rope1_Seg07]
11 139.999985 0.000060 0.000000 -2.848519 11.632168 -12.755047 139.999985
12 139.999985 0.000060 0.000000 -12.804786 14.368500 -11.622770 139.999985
[Rope1_Seg09]
11 121.602913 0.000119 -0.000089 -89.793175 -1.359789 0.847147 121.602913
12 121.602913 0.000119 -0.000089 -89.793175 -1.359789 0.847147 121.602913
[L_mid_hand01]
11 103.859421 1.038730 8.195221 109.056198 -40.604698 -13.201401 104.187431
12 103.859421 1.038730 8.195221 109.203865 -41.086704 -13.424594 104.187431
[L_mid_hand02]
11 105.572853 -4.139662 -10.864139 -146.713593 31.476528 -37.902313 106.211075
12 105.572853 -4.139662 -10.864139 -146.975464 31.757519 -38.401615 106.211075
[L_mid_hand03]
11 104.641464 17.579376 -3.913581 -14.267233 12.322316 43.898396 106.179977
12 104.641464 17.579376 -3.913581 -14.157614 12.442542 44.406353 106.179977
[null_rope02_connect]
11 328.732849 0.000179 -0.000119 -153.119339 67.988373 13.284578 328.732849
12 328.732849 0.000179 -0.000119 -141.499527 67.087059 23.293295 328.732849
[Rope2_Seg01]
11 0.000048 0.000114 0.000000 117.236908 -26.113783 -3.079936 0.000124
12 0.000049 0.000111 0.000000 132.995911 -37.853752 -4.120531 0.000121
[Rope2_Seg02]
11 139.999741 -0.000060 -0.000119 -42.720470 -24.953730 -33.434765 139.999756
12 139.999741 -0.000060 -0.000119 -39.259113 -23.339296 -26.144922 139.999756
[Rope2_Seg03]
11 140.000107 0.000030 0.000000 -24.356920 -4.019045 -43.472858 140.000107
12 140.000107 0.000030 0.000000 -31.119446 -9.708156 -56.371956 140.000107
[Rope2_Seg04]
11 139.999802 0.000000 -0.000060 -0.125587 14.423230 -4.551867 139.999802
12 139.999802 0.000000 -0.000060 2.559749 44.894249 8.230754 139.999802
[Rope2_Seg05]
11 139.999985 -0.000060 0.000119 1.206725 38.794838 16.863888 139.999985
12 139.999985 -0.000060 0.000119 -10.632195 26.709343 9.096885 139.999985
[Rope2_Seg06]
11 139.999893 -0.000030 -0.000119 -10.177141 23.171425 9.978188 139.999893
12 139.999893 -0.000030 -0.000119 -5.401927 7.211483 3.020068 139.999893
[Rope2_Seg07]
11 139.999893 0.000060 -0.000060 -6.739754 8.042115 4.823450 139.999893
12 139.999893 0.000060 -0.000060 -3.434045 3.533084 1.900669 139.999893
[Rope2_Seg09]
11 121.338966 0.000089 -0.000060 33.793236 -1.359788 -0.847141 121.338966
12 121.338966 0.000089 -0.000060 33.793236 -1.359788 -0.847141 121.338966
[R_mid_hand01]
11 104.680779 11.144459 -10.335981 -33.085678 36.191685 44.913235 105.778534
12 104.680779 11.144459 -10.335981 -34.514385 34.853703 42.458717 105.778534
[R_mid_hand02]
11 104.070427 2.443552 8.231699 67.611237 -49.370296 17.897308 104.424065
12 104.070427 2.443552 8.231699 68.611877 -47.139290 16.550774 104.424065
[R_mid_hand03]
11 106.028137 -11.221827 -5.996406 -171.571182 13.427420 -54.737041 106.788818
12 106.028137 -11.221827 -5.996406 -171.008881 13.064260 -52.295338 106.788818
[spine02]
11 129.756927 0.001550 0.000119 0.530191 -4.024908 -15.374445 129.756927
12 129.756927 0.001550 0.000119 0.537560 -4.023919 -15.444612 129.756927
[spine03]
11 78.614021 0.081520 -4.899006 1.995888 3.780540 17.997084 78.766556
12 78.614021 0.081524 -4.899006 1.999596 3.776836 18.047235 78.766556
[pelvis]
11 169.435242 0.051022 0.000000 -0.070208 -0.177785 17.188129 169.435257
12 169.435242 0.051022 0.000000 -0.070348 -0.177729 17.278177 169.435257
[null_rope03_connect]
11 -1.257226 -2.466202 137.391083 -73.260010 -84.011353 109.895744 137.418976
12 -1.257226 -2.466202 137.391083 -88.931931 -85.597183 126.781013 137.418976
[null_rope04_connect]
11 -1.259640 -2.480268 -137.844437 -73.260010 -84.011353 109.895744 137.872513
12 -1.259640 -2.480268 -137.844437 -88.931931 -85.597183 126.781013 137.872513
[Rope3_Seg01]
11 -0.000024 -0.000105 0.000000 17.653406 -23.736488 -75.988899 0.000108
12 -0.000024 -0.000112 0.000000 14.658182 -18.620808 -67.776260 0.000114
[Rope3_Seg02]
11 139.999924 -0.000119 0.000060 16.758474 34.587994 35.109592 139.999924
12 139.999924 -0.000119 0.000060 16.714870 30.526752 37.641022 139.999924
[Rope3_Seg03]
11 139.999924 -0.000119 0.000119 133.702866 46.623478 48.899639 139.999924
12 139.999924 -0.000119 0.000119 148.553619 38.637993 44.012012 139.999924
[Rope3_Seg04]
11 139.999924 0.000119 0.000000 11.988888 1.611777 -9.843243 139.999924
12 139.999924 0.000119 0.000000 9.503659 -1.104875 -10.945534 139.999924
[Rope3_Seg05]
11 139.999924 -0.000238 0.000060 0.188068 -2.175009 -3.301733 139.999924
12 139.999924 -0.000238 0.000060 -0.117544 -3.071473 -4.231185 139.999924
[Rope3_Seg06]
11 139.999893 -0.000119 -0.000060 0.258995 -2.854940 -3.968319 139.999893
12 139.999893 -0.000119 -0.000060 0.490729 -3.250086 -4.842667 139.999893
[Rope3_Seg07]
11 139.999771 0.000060 -0.000119 1.673879 -2.128713 -4.987945 139.999771
12 139.999771 0.000060 -0.000119 1.171738 -2.597219 -4.869666 139.999771
[Rope3_Seg08]
11 139.999985 -0.000060 0.000000 1.249225 -1.772504 -3.861874 139.999985
12 139.999985 -0.000060 0.000000 0.906785 -1.940268 -3.476809 139.999985
[Rope3_Seg09]
11 90.185997 -0.000179 -0.000060 89.793228 -1.359877 -0.847183 90.185997
12 90.185997 -0.000179 -0.000060 89.793228 -1.359877 -0.847183 90.185997
[R_rear_hand01]
11 103.366196 -6.073594 -10.757982 -167.001480 21.149061 -46.791374 104.101845
12 103.366196 -6.073594 -10.757982 -166.071487 20.559359 -44.173782 104.101845
[R_rear_hand02]
11 100.509819 12.039542 -7.992327 -28.108641 27.848612 44.189137 101.543350
12 100.509819 12.039542 -7.992327 -29.245224 26.638000 41.706207 101.543350
[R_rear_hand03]
11 101.539970 5.215704 5.435467 81.609138 -47.214466 10.038949 101.819031
12 101.539970 5.215704 5.435467 81.983536 -44.720295 9.521895 101.819031
[Rope4_Seg01]
11 0.000010 0.000038 -0.000114 -87.658058 -19.599810 -132.643570 0.000121
12 0.000010 0.000038 -0.000114 -86.950020 -22.663549 -132.057785 0.000121
[Rope4_Seg02]
11 139.999985 0.000060 0.000119 1.107989 8.804964 2.125867 139.999985
12 139.999985 0.000060 0.000119 1.361057 9.485828 1.608518 139.999985
[Rope4_Seg03]
11 139.999924 0.000000 -0.000238 2.639770 12.773847 2.885927 139.999924
12 139.999924 0.000000 -0.000238 3.244853 13.401072 1.997111 139.999924
[Rope4_Seg04]
11 139.999985 0.000000 0.000119 5.654254 16.601933 4.210499 139.999985
12 139.999985 0.000000 0.000119 7.969605 17.284353 2.217773 139.999985
[Rope4_Seg05]
11 139.999802 -0.000060 -0.000119 18.287769 17.200241 2.821068 139.999802
12 139.999802 -0.000060 -0.000119 20.030273 16.666225 0.331538 139.999802
[Rope4_Seg06]
11 139.999924 0.000000 0.000060 72.205994 14.861325 -7.056322 139.999924
12 139.999924 0.000000 0.000060 43.920151 11.363369 -6.327587 139.999924
[Rope4_Seg07]
11 139.999802 0.000000 0.000000 25.716606 -4.269810 -13.873934 139.999802
12 139.999802 0.000000 0.000000 32.323277 1.453449 -12.467786 139.999802
[Rope4_Seg08]
11 139.999924 0.000000 0.000119 5.126537 -4.767472 -6.358929 139.999924
12 139.999924 0.000000 0.000119 10.157344 -3.689912 -8.370765 139.999924
[Rope4_Seg09]
11 90.185791 0.000060 0.000060 -135.617828 2.228885 0.850567 90.185791
12 90.185791 0.000060 0.000060 -135.617828 2.228885 0.850567 90.185791
[L_rear_hand01]
11 101.696655 -8.392275 -7.654577 -30.608620 -25.023813 141.417831 102.329041
12 101.696655 -8.392275 -7.654577 -29.807383 -26.000994 139.554398 102.329041
[L_rear_hand02]
11 102.726799 -1.568258 5.773216 82.398407 41.509426 171.081650 102.900848
12 102.726799 -1.568258 5.773216 82.157761 43.437943 170.726135 102.900848
[L_rear_hand03]
11 104.552910 9.721220 -10.420293 -164.917755 -19.749290 -139.167572 105.519653
12 104.552910 9.721220 -10.420293 -165.604721 -20.244781 -137.169205 105.519653
